<?xml version="1.0" standalone="no"?>
<!DOCTYPE svg PUBLIC "-//W3C//DTD SVG 20010904//EN"
 "http://www.w3.org/TR/2001/REC-SVG-20010904/DTD/svg10.dtd">
<svg version="1.0" xmlns="http://www.w3.org/2000/svg"
 width="2000.000000pt" height="2000.000000pt" viewBox="0 0 2000.000000 2000.000000"
 preserveAspectRatio="xMidYMid meet">

<g transform="translate(0.000000,2000.000000) scale(0.100000,-0.100000)"
fill="#000000" stroke="none">
<path d="M0 10000 l0 -10000 9995 0 9995 0 0 10000 0 10000 -9995 0 -9995 0 0
-10000z m11004 7874 c511 -63 1001 -273 1403 -603 492 -402 837 -975 957
-1586 42 -217 50 -308 50 -555 0 -245 -13 -370 -56 -570 -236 -1099 -1117
-1949 -2217 -2140 -190 -33 -340 -43 -566 -37 -295 9 -505 45 -779 135 -78 26
-145 46 -151 46 -5 -1 -208 -137 -449 -303 -242 -166 -450 -304 -463 -307 -74
-19 -153 43 -153 119 0 23 14 297 31 609 l31 567 -77 93 c-366 435 -566 889
-647 1468 -19 140 -16 544 5 689 71 476 226 868 489 1239 182 255 432 501 683
671 432 294 876 444 1430 485 87 6 355 -5 479 -20z m4664 -6204 c378 -90 565
-415 482 -840 -140 -723 -698 -1301 -1419 -1469 -109 -26 -143 -41 -188 -84
-62 -58 -110 -270 -101 -447 7 -144 69 -240 195 -297 48 -22 65 -25 142 -21
70 3 99 10 153 35 140 66 369 242 613 472 156 147 206 181 268 181 74 0 149
-104 211 -292 58 -172 27 -275 -134 -453 -245 -271 -565 -514 -836 -633 -522
-230 -948 -156 -1185 206 -97 148 -137 293 -170 622 -24 237 -22 309 22 605
130 893 461 1584 1016 2127 204 198 366 281 613 312 67 8 236 -4 318 -24z
m-2516 -340 c212 -66 362 -245 433 -513 124 -471 105 -960 -66 -1617 -127
-491 -267 -847 -432 -1098 -252 -385 -526 -572 -834 -572 -187 0 -347 57 -555
196 -76 51 -138 88 -138 81 -1 -7 -32 -214 -69 -462 -38 -247 -67 -452 -65
-453 1 -2 197 21 436 52 700 90 1163 136 2268 225 806 66 835 67 902 48 103
-31 180 -109 229 -235 32 -80 33 -219 2 -278 -28 -52 -76 -99 -130 -125 -69
-33 -401 -87 -1138 -184 -620 -81 -1892 -248 -2265 -296 -358 -46 -394 -56
-435 -118 -14 -20 -36 -76 -50 -126 -56 -194 -138 -309 -262 -368 -77 -35
-165 -47 -213 -27 -40 16 -90 86 -141 196 -39 84 -42 95 -43 183 -1 59 -5 96
-12 98 -20 7 -643 -97 -944 -157 -162 -32 -549 -111 -860 -175 -311 -64 -784
-161 -1052 -215 -268 -55 -504 -106 -525 -115 -48 -20 -109 -78 -135 -129 -11
-21 -53 -137 -94 -257 -287 -846 -556 -1398 -912 -1874 -326 -434 -580 -668
-887 -816 -209 -101 -356 -139 -538 -139 -242 0 -435 79 -616 254 -185 179
-268 367 -278 633 -6 148 4 237 48 421 108 457 297 848 595 1232 107 138 369
403 514 522 305 248 474 352 1046 646 379 194 446 232 486 280 23 28 189 513
423 1240 l24 73 -23 -18 c-13 -10 -88 -73 -166 -141 -190 -166 -288 -237 -395
-288 -119 -58 -188 -74 -310 -74 -84 0 -113 5 -181 29 -144 50 -291 168 -358
288 -71 125 -101 293 -85 467 30 319 247 1189 393 1577 130 346 159 459 181
714 16 180 33 249 72 296 38 44 80 59 171 59 285 0 493 -200 452 -434 -17 -93
-92 -377 -185 -694 -196 -672 -238 -853 -239 -1027 -1 -105 2 -126 22 -171 50
-111 122 -137 262 -95 66 20 80 30 167 114 117 112 211 229 257 316 66 126
347 853 571 1476 53 149 117 326 142 395 109 301 236 462 448 566 170 83 372
111 445 62 64 -44 75 -69 74 -171 -1 -100 -17 -161 -488 -1852 -96 -346 -236
-850 -311 -1120 -75 -269 -192 -689 -261 -932 -68 -243 -124 -446 -124 -451 0
-4 134 15 298 44 413 73 1706 281 2570 414 332 51 390 63 433 86 65 36 94 95
109 219 6 50 29 173 50 274 22 101 39 186 37 188 -2 2 -89 -26 -193 -62 -216
-74 -306 -95 -404 -95 -162 0 -294 104 -361 285 -12 33 -26 64 -29 68 -4 5
-44 -43 -88 -106 -155 -220 -259 -320 -405 -392 -102 -49 -174 -65 -297 -65
-295 0 -527 135 -644 375 -142 291 -180 804 -95 1292 59 339 208 801 370 1142
203 427 516 806 790 954 142 77 306 103 459 73 92 -19 234 -72 316 -117 28
-16 55 -29 61 -29 5 0 22 22 37 49 44 82 113 169 157 198 35 23 51 27 109 27
37 -1 109 -11 160 -24 199 -49 269 -149 236 -335 -16 -85 -75 -369 -180 -865
-126 -596 -180 -882 -226 -1212 -27 -201 -26 -234 12 -326 17 -42 32 -79 34
-81 6 -7 136 30 175 50 50 25 143 137 180 214 28 60 120 508 414 2020 70 358
91 452 116 502 81 169 288 234 465 148 57 -28 120 -91 129 -127 3 -13 11 -50
18 -83 l12 -60 146 138 c167 157 212 193 300 240 159 86 326 106 481 57z"/>
<path d="M9927 16215 c-43 -8 -111 -28 -151 -43 -200 -78 -356 -253 -412 -462
-21 -80 -24 -271 -5 -350 22 -91 84 -209 146 -278 121 -133 198 -169 700 -327
258 -82 313 -114 363 -209 35 -68 38 -196 5 -267 -63 -139 -199 -209 -408
-209 -292 0 -474 141 -522 402 -8 46 -17 94 -19 107 -23 116 -268 137 -334 29
-37 -60 -21 -250 33 -406 76 -219 263 -405 478 -478 229 -78 531 -69 734 20
275 122 453 426 431 739 -19 273 -152 471 -401 594 -68 34 -243 93 -453 152
-278 79 -366 133 -392 241 -33 138 32 273 160 329 127 56 351 52 469 -8 96
-50 159 -152 185 -304 9 -48 23 -98 32 -112 37 -57 169 -84 247 -51 43 18 85
68 93 112 10 53 -13 209 -45 302 -40 114 -83 184 -171 273 -61 61 -94 85 -170
123 -52 25 -131 56 -175 67 -106 27 -310 34 -418 14z"/>
<path d="M12245 16081 c-16 -10 -42 -31 -56 -47 -14 -16 -270 -474 -569 -1019
-532 -967 -544 -991 -544 -1045 -1 -168 193 -259 317 -148 51 46 1127 2004
1134 2064 10 77 -37 162 -109 200 -40 21 -136 18 -173 -5z"/>
<path d="M15253 10980 c-85 -44 -146 -131 -423 -605 -64 -110 -130 -225 -148
-256 l-32 -57 35 -26 34 -27 98 37 c258 96 430 222 551 403 84 126 115 207
115 306 1 100 -15 157 -57 202 -42 47 -109 55 -173 23z"/>
<path d="M12668 10550 c-71 -21 -187 -131 -308 -292 -90 -119 -130 -208 -209
-463 -130 -425 -374 -1338 -374 -1403 -1 -78 53 -124 168 -142 210 -34 417 68
555 270 118 173 285 590 359 892 89 366 110 653 62 883 -23 111 -39 151 -82
200 -51 58 -105 75 -171 55z"/>
<path d="M10051 10273 c-49 -10 -202 -83 -283 -135 -149 -97 -312 -282 -417
-472 -129 -233 -223 -553 -277 -942 l-17 -121 32 -132 c40 -166 83 -287 122
-339 36 -50 117 -92 174 -92 101 0 195 63 278 187 39 58 61 116 151 388 277
846 456 1428 456 1486 0 80 -51 147 -128 169 -38 10 -50 11 -91 3z"/>
<path d="M5975 4906 c-557 -286 -967 -672 -1258 -1181 -103 -180 -220 -500
-220 -605 -1 -75 27 -153 72 -201 35 -36 42 -39 93 -39 81 0 153 26 248 88
304 201 695 767 997 1440 74 166 237 572 231 577 -2 2 -75 -33 -163 -79z"/>
</g>
</svg>
